<svg xmlns="http://www.w3.org/2000/svg" viewBox="0 0 32 32" >
<circle cx="16" cy="16" r="16" fill="#F6E50A"/>
<path d="M15.9,10.1c-3.3,0-6,2.7-6,6s2.7,6,6,6s6-2.7,6-6S19.2,10.1,15.9,10.1z M16,20.5c-2.5,0-4.5-2-4.5-4.5s2-4.5,4.5-4.5
	s4.5,2,4.5,4.5S18.4,20.5,16,20.5z M30,16l-6-1.5c0.1,0.5,0.1,1,0.1,1.5s0,1-0.1,1.5L30,16z M16,7.9c0.5,0,1,0,1.5,0.1L16,2l-1.5,6
	C15,7.9,15.5,7.9,16,7.9z M7.9,16c0-0.5,0-1,0.1-1.5L2,16l6,1.5C7.9,17,7.9,16.5,7.9,16z M16,24.1c-0.5,0-1,0-1.5-0.1l1.5,6l1.5-6
	C17,24.1,16.5,24.1,16,24.1z"/>
</svg>