<svg xmlns="http://www.w3.org/2000/svg" viewBox="0 0 192 192" >
	<circle cx="96" cy="96" r="96" fill="#F6E50A"/>
	<path transform="translate(32 32) scale(2,2)" d="M31.9 16.3c-8.8 0-16 7.2-16 16s7.2 16 16 16 16-7.2 16-16c0-8.9-7.1-16-16-16zm0 27.7c-6.6 0-12-5.4-12-12s5.4-12 12-12 12 5.4 12 12-5.4 12-12 12zM64 32l-13.8-3.5c.2 1.1.3 2.3.3 3.5 0 1.2-.1 2.3-.3 3.5L64 32zM32 13.5c1.2 0 2.3.1 3.5.3L32 0l-3.5 13.8c1.2-.2 2.3-.3 3.5-.3zM13.5 32c0-1.2.1-2.3.3-3.5L0 32l13.8 3.5c-.2-1.2-.3-2.3-.3-3.5zM32 50.5c-1.2 0-2.3-.1-3.5-.3L32 64l3.5-13.8c-1.2.2-2.3.3-3.5.3zm-6.7-21.4c1.7 0 2.7.8 2.7 2 0 .7-.4 1.2-1 1.3.8.2 1.2.7 1.2 1.5 0 1.6-1.5 2.3-2.9 2.3-1.6 0-3-.7-3-2.5v-.2h1.9v.1c0 .7.3 1 1 1 .6 0 1-.3 1-.7 0-.6-.6-.7-1.1-.7h-.4v-1.3h.8c.4 0 .6-.2.6-.6 0-.4-.4-.6-.9-.6-.6 0-.9.3-.9.8h-1.9c.2-1.7 1.3-2.4 2.9-2.4zM33 31c-.1-.4-.3-.5-.8-.5-.9 0-1.1.8-1.2 1.5.4-.3.9-.5 1.5-.5 1.5 0 2.4.8 2.4 2.2 0 1.6-1.3 2.5-2.8 2.5-2.1 0-3-1.5-3-3.4 0-2 .9-3.7 3.1-3.7 1.3 0 2.3.6 2.6 1.9H33zm-1.9 2.6c0 .6.4 1 1 1s1-.4 1-1c0-.5-.4-1-1-1s-1 .5-1 1zm10.5-1c0 1.9-.9 3.6-2.9 3.6s-3-1.7-3-3.5c0-2.1 1.2-3.5 3-3.5 2-.1 2.9 1.6 2.9 3.4zm-4 .1c0 1.3.3 1.9 1.1 1.9.7 0 1.1-.7 1.1-2s-.3-2-1.1-2c-1.1 0-1.1 1.3-1.1 2.1z"/>
</svg>