<svg xmlns="http://www.w3.org/2000/svg" x="0px" y="0px" viewBox="0 0 768 256">
<rect fill="#FFF" width="256" height="256"/>
<rect fill="#F6E50A" x="256" class="st1" width="256" height="256"/>
<rect x="512" y="0" width="256" height="256"/>
<path d="M127.7,79.1c-27.3,0-49.5,22.2-49.5,49.5s22.2,49.5,49.5,49.5s49.5-22.2,49.5-49.5S155,79.1,127.7,79.1z M127.7,164
	c-19.8,0-36-16.2-36-36s16.2-36,36-36s36,16.2,36,36S147.5,164,127.7,164z M224,128l-41.4-10.5c0.6,3.3,0.9,6.9,0.9,10.5
	c0,3.6-0.3,6.9-0.9,10.5L224,128z M128,72.5c3.6,0,6.9,0.3,10.5,0.9L128,32l-10.5,41.4C121.1,72.8,124.4,72.5,128,72.5z M72.5,128
	c0-3.6,0.3-6.9,0.9-10.5L32,128l41.4,10.5C72.8,134.9,72.5,131.6,72.5,128z M128,183.5c-3.6,0-6.9-0.3-10.5-0.9L128,224l10.5-41.4
	C134.9,183.2,131.6,183.5,128,183.5z M107.9,119.3c5.1,0,8.1,2.4,8.1,6c0,2.1-1.2,3.6-3,3.9c2.4,0.6,3.6,2.1,3.6,4.5
	c0,4.8-4.5,6.9-8.7,6.9c-4.8,0-9-2.1-9-7.5v-0.6h5.7v0.3c0,2.1,0.9,3,3,3c1.8,0,3-0.9,3-2.1c0-1.8-1.8-2.1-3.3-2.1h-1.2v-3.9h2.4
	c1.2,0,1.8-0.6,1.8-1.8s-1.2-1.8-2.7-1.8c-1.8,0-2.7,0.9-2.7,2.4h-5.7C99.8,121.4,103.1,119.3,107.9,119.3z M131,125
	c-0.3-1.2-0.9-1.5-2.4-1.5c-2.7,0-3.3,2.4-3.6,4.5c1.2-0.9,2.7-1.5,4.5-1.5c4.5,0,7.2,2.4,7.2,6.6c0,4.8-3.9,7.5-8.4,7.5
	c-6.3,0-9-4.5-9-10.2c0-6,2.7-11.1,9.3-11.1c3.9,0,6.9,1.8,7.8,5.7C136.4,125,131,125,131,125z M125.3,132.8c0,1.8,1.2,3,3,3
	c1.8,0,3-1.2,3-3c0-1.5-1.2-3-3-3C126.5,129.8,125.3,131.3,125.3,132.8z M156.8,129.8c0,5.7-2.7,10.8-8.7,10.8c-6,0-9-5.1-9-10.5
	c0-6.3,3.6-10.5,9-10.5C154.1,119.3,156.8,124.4,156.8,129.8z M144.8,130.1c0,3.9,0.9,5.7,3.3,5.7c2.1,0,3.3-2.1,3.3-6
	c0-3.9-0.9-6-3.3-6C144.8,123.8,144.8,127.7,144.8,130.1z"/>
<path d="M383.7,79.1c-27.3,0-49.5,22.2-49.5,49.5s22.2,49.5,49.5,49.5c27.3,0,49.5-22.2,49.5-49.5S411,79.1,383.7,79.1z M383.7,164
	c-19.8,0-36-16.2-36-36s16.2-36,36-36s36,16.2,36,36S403.5,164,383.7,164z M480,128l-41.4-10.5c0.6,3.3,0.9,6.9,0.9,10.5
	c0,3.6-0.3,6.9-0.9,10.5L480,128z M384,72.5c3.6,0,6.9,0.3,10.5,0.9L384,32l-10.5,41.4C377.1,72.8,380.4,72.5,384,72.5z M328.5,128
	c0-3.6,0.3-6.9,0.9-10.5L288,128l41.4,10.5C328.8,134.9,328.5,131.6,328.5,128z M384,183.5c-3.6,0-6.9-0.3-10.5-0.9L384,224
	l10.5-41.4C390.9,183.2,387.6,183.5,384,183.5z M363.9,119.3c5.1,0,8.1,2.4,8.1,6c0,2.1-1.2,3.6-3,3.9c2.4,0.6,3.6,2.1,3.6,4.5
	c0,4.8-4.5,6.9-8.7,6.9c-4.8,0-9-2.1-9-7.5v-0.6h5.7v0.3c0,2.1,0.9,3,3,3c1.8,0,3-0.9,3-2.1c0-1.8-1.8-2.1-3.3-2.1h-1.2v-3.9h2.4
	c1.2,0,1.8-0.6,1.8-1.8s-1.2-1.8-2.7-1.8c-1.8,0-2.7,0.9-2.7,2.4h-5.7C355.8,121.4,359.1,119.3,363.9,119.3z M387,125
	c-0.3-1.2-0.9-1.5-2.4-1.5c-2.7,0-3.3,2.4-3.6,4.5c1.2-0.9,2.7-1.5,4.5-1.5c4.5,0,7.2,2.4,7.2,6.6c0,4.8-3.9,7.5-8.4,7.5
	c-6.3,0-9-4.5-9-10.2c0-6,2.7-11.1,9.3-11.1c3.9,0,6.9,1.8,7.8,5.7C392.4,125,387,125,387,125z M381.3,132.8c0,1.8,1.2,3,3,3
	s3-1.2,3-3c0-1.5-1.2-3-3-3S381.3,131.3,381.3,132.8z M412.8,129.8c0,5.7-2.7,10.8-8.7,10.8c-6,0-9-5.1-9-10.5
	c0-6.3,3.6-10.5,9-10.5C410.1,119.3,412.8,124.4,412.8,129.8z M400.8,130.1c0,3.9,0.9,5.7,3.3,5.7c2.1,0,3.3-2.1,3.3-6
	c0-3.9-0.9-6-3.3-6C400.8,123.8,400.8,127.7,400.8,130.1z"/>
<path fill="#FFF" class="st0" d="M644.7,79.1c-27.3,0-49.5,22.2-49.5,49.5s22.2,49.5,49.5,49.5s49.5-22.2,49.5-49.5S672,79.1,644.7,79.1z
	 M644.7,164c-19.8,0-36-16.2-36-36s16.2-36,36-36c19.8,0,36,16.2,36,36S664.5,164,644.7,164z M741,128l-41.4-10.5
	c0.6,3.3,0.9,6.9,0.9,10.5c0,3.6-0.3,6.9-0.9,10.5L741,128z M645,72.5c3.6,0,6.9,0.3,10.5,0.9L645,32l-10.5,41.4
	C638.1,72.8,641.4,72.5,645,72.5z M589.5,128c0-3.6,0.3-6.9,0.9-10.5L549,128l41.4,10.5C589.8,134.9,589.5,131.6,589.5,128z
	 M645,183.5c-3.6,0-6.9-0.3-10.5-0.9L645,224l10.5-41.4C651.9,183.2,648.6,183.5,645,183.5z M624.9,119.3c5.1,0,8.1,2.4,8.1,6
	c0,2.1-1.2,3.6-3,3.9c2.4,0.6,3.6,2.1,3.6,4.5c0,4.8-4.5,6.9-8.7,6.9c-4.8,0-9-2.1-9-7.5v-0.6h5.7v0.3c0,2.1,0.9,3,3,3
	c1.8,0,3-0.9,3-2.1c0-1.8-1.8-2.1-3.3-2.1h-1.2v-3.9h2.4c1.2,0,1.8-0.6,1.8-1.8s-1.2-1.8-2.7-1.8c-1.8,0-2.7,0.9-2.7,2.4h-5.7
	C616.8,121.4,620.1,119.3,624.9,119.3z M648,125c-0.3-1.2-0.9-1.5-2.4-1.5c-2.7,0-3.3,2.4-3.6,4.5c1.2-0.9,2.7-1.5,4.5-1.5
	c4.5,0,7.2,2.4,7.2,6.6c0,4.8-3.9,7.5-8.4,7.5c-6.3,0-9-4.5-9-10.2c0-6,2.7-11.1,9.3-11.1c3.9,0,6.9,1.8,7.8,5.7
	C653.4,125,648,125,648,125z M642.3,132.8c0,1.8,1.2,3,3,3s3-1.2,3-3c0-1.5-1.2-3-3-3S642.3,131.3,642.3,132.8z M673.8,129.8
	c0,5.7-2.7,10.8-8.7,10.8c-6,0-9-5.1-9-10.5c0-6.3,3.6-10.5,9-10.5C671.1,119.3,673.8,124.4,673.8,129.8z M661.8,130.1
	c0,3.9,0.9,5.7,3.3,5.7c2.1,0,3.3-2.1,3.3-6c0-3.9-0.9-6-3.3-6C661.8,123.8,661.8,127.7,661.8,130.1z"/>
</svg>
